<svg height="512pt" viewBox="-59 0 512 512" width="512pt" xmlns="http://www.w3.org/2000/svg"><path d="m357.691406 504.796875h-321.953125c-15.515625 0-28.136719-12.621094-28.136719-28.132813v-440.734374c0-15.511719 12.621094-28.132813 28.136719-28.132813h321.953125c15.511719 0 28.132813 12.621094 28.132813 28.132813v440.734374c0 15.511719-12.621094 28.132813-28.132813 28.132813zm0 0" fill="#ffc850"/><path d="m38.863281 476.664062v-440.734374c0-15.511719 12.621094-28.132813 28.132813-28.132813h-31.257813c-15.515625 0-28.136719 12.621094-28.136719 28.132813v440.734374c0 15.511719 12.621094 28.132813 28.136719 28.132813h31.257813c-15.511719 0-28.132813-12.621094-28.132813-28.132813zm0 0" fill="#feb644"/><path d="m350.183594 79.167969c-.015625 0-.03125 0-.046875 0-19.707031 0-35.683594-15.976563-35.683594-35.683594 0-.015625 0-.03125 0-.046875.003906-2.402344-1.878906-4.378906-4.285156-4.378906h-226.910157c-2.402343 0-4.285156 1.976562-4.28125 4.378906v.046875c0 19.707031-15.980468 35.683594-35.6875 35.683594-.015624 0-.03125 0-.042968 0-2.40625-.003907-4.382813 1.878906-4.382813 4.285156v345.6875c0 2.40625 1.976563 4.289063 4.382813 4.285156h.042968c19.707032 0 35.6875 15.976563 35.6875 35.683594v.046875c-.003906 2.402344 1.878907 4.378906 4.28125 4.378906h226.910157c2.40625 0 4.285156-1.976562 4.285156-4.378906 0-.015625 0-.03125 0-.046875 0-19.707031 15.976563-35.683594 35.683594-35.683594h.046875c2.402344.003907 4.378906-1.878906 4.378906-4.285156v-345.6875c.003906-2.40625-1.976562-4.289063-4.378906-4.285156zm0 0" fill="#e4eaf8"/><path d="m108.976562 469.15625c0-.015625 0-.03125 0-.042969 0-19.710937-15.976562-35.6875-35.683593-35.6875-.015625 0-.03125 0-.046875 0-2.402344.003907-4.382813-1.878906-4.382813-4.28125v-345.691406c0-2.40625 1.980469-4.289063 4.382813-4.285156h.046875c19.707031 0 35.683593-15.976563 35.683593-35.683594 0-.015625 0-.03125 0-.046875-.003906-2.402344 1.878907-4.378906 4.285157-4.378906h-30.003907c-2.402343 0-4.285156 1.976562-4.28125 4.378906v.046875c0 19.707031-15.980468 35.683594-35.6875 35.683594-.015624 0-.03125 0-.042968 0-2.40625-.003907-4.382813 1.878906-4.382813 4.285156v345.6875c0 2.40625 1.976563 4.289063 4.382813 4.285156h.042968c19.707032 0 35.6875 15.976563 35.6875 35.683594v.046875c-.003906 2.402344 1.878907 4.378906 4.28125 4.378906h30.003907c-2.40625.003906-4.289063-1.972656-4.285157-4.378906zm0 0" fill="#d8dce5"/><path d="m169.179688 106.121094h55.066406l15.328125-26.632813h-85.722657zm0 0" fill="#c64ac6"/><path d="m158.503906 87.566406 10.675782 18.554688h55.066406l10.675781-18.554688zm0 0" fill="#b83bbc"/><path d="m248.894531 91.207031-9.320312-11.71875-69.335938 107.472657-35.34375 54.789062c-.894531 1.386719.351563 3.160156 1.960938 2.785156l16.710937-3.90625c.945313-.21875 1.902344.332032 2.179688 1.265625l4.347656 14.546875c.449219 1.503906 2.453125 1.789063 3.304688.472656 1.65625-2.5625 59.492187-92.144531 87.023437-134.78125 6.175781-9.570312 5.5625-22.011718-1.527344-30.925781zm0 0" fill="#d665d3"/><path d="m154.1875 240.597656 34.605469-53.636718 60.996093-94.550782c-.285156-.40625-.582031-.8125-.894531-1.203125l-9.320312-11.71875-69.335938 107.472657-35.34375 54.789062c-.894531 1.386719.351563 3.160156 1.960938 2.785156l16.710937-3.90625c.210938-.050781.417969-.054687.621094-.03125zm0 0" fill="#c64ac6"/><path d="m258.53125 241.746094-104.679688-162.257813-9.320312 11.71875c-7.089844 8.914063-7.703125 21.355469-1.523438 30.925781l87.019532 134.78125c.851562 1.316407 2.859375 1.03125 3.308594-.472656l4.34375-14.546875c.28125-.933593 1.234374-1.484375 2.179687-1.265625l16.710937 3.90625c1.609376.375 2.859376-1.398437 1.960938-2.789062zm0 0" fill="#e274e2"/><path d="m161.558594 122.128906c-5.902344-9.144531-5.597656-20.914062.632812-29.71875l-8.339844-12.921875-9.320312 11.71875c-7.089844 8.914063-7.703125 21.355469-1.523438 30.921875l87.019532 134.785156c.851562 1.316407 2.859375 1.03125 3.308594-.472656l4.34375-14.546875c.113281-.375.335937-.683593.621093-.910156zm0 0" fill="#d665d3"/><path d="m321.847656 43.152344c.011719-6.582032-5.246094-11.894532-11.78125-11.894532h-226.910156c-6.445312 0-11.796875 5.210938-11.785156 11.929688 0 15.539062-12.644532 28.183594-28.21875 28.183594-.007813 0-.011719 0-.019532 0-6.5625 0-11.875 5.25-11.875 11.785156v345.6875c0 6.484375 5.25 11.785156 11.910157 11.785156h.011719c15.546874 0 28.191406 12.644532 28.191406 28.21875-.011719 6.582032 5.25 11.894532 11.78125 11.894532h226.910156c6.46875 0 11.796875-5.230469 11.785156-11.929688 0-15.539062 12.644532-28.183594 28.21875-28.183594h.019532c6.5625 0 11.875-5.25 11.875-11.78125v-345.691406c0-6.441406-5.195313-11.785156-11.929688-11.785156-15.539062 0-28.183594-12.644532-28.183594-28.21875zm25.113282 382.582031c-21.351563 1.507813-38.46875 18.613281-40 40.003906h-220.695313c-1.511719-21.351562-18.613281-38.46875-40.003906-40v-339.476562c21.351562-1.507813 38.464843-18.609375 40-40h220.695312c1.511719 21.367187 18.636719 38.492187 40.003907 40zm0 0"/><path d="m138.460938 251.539062 11.519531-2.691406 2.820312 9.4375c2.265625 7.589844 12.445313 9.128906 16.796875 2.398438l27.011719-41.839844 27.015625 41.839844c4.335938 6.710937 14.519531 5.214844 16.792969-2.394532l2.820312-9.441406 11.523438 2.691406c8.15625 1.910157 14.519531-7.109374 9.96875-14.15625h.003906l-40.03125-62.050781 31.914063-49.429687c7.933593-12.28125 7.144531-28.222656-1.953126-39.664063l-9.320312-11.71875c-1.375-1.726562-3.585938-2.832031-5.871094-2.832031h-25.359375c-4.144531 0-7.5 3.359375-7.5 7.5s3.355469 7.5 7.5 7.5h11.59375c-.847656 1.316406-6.824219 10.582031-7.503906 11.632812h-43.179687c-.015626-.023437-7.492188-11.609374-7.507813-11.632812h11.59375c4.144531 0 7.5-3.359375 7.5-7.5s-3.355469-7.5-7.5-7.5h-25.355469c-2.273437 0-4.484375 1.089844-5.871094 2.832031l-9.320312 11.71875c-9.101562 11.441407-9.886719 27.382813-1.957031 39.664063l31.914062 49.429687-40.027343 62.050781c-4.554688 7.050782 1.808593 16.058594 9.96875 14.15625zm101.644531-159.5 2.816406 3.539063c5.089844 6.398437 5.527344 15.316406 1.09375 22.1875l-28.238281 43.734375-10.238282-15.875c22.234376-34.46875 12.234376-18.96875 34.566407-53.585938zm-31.582031 21.285157-11.914063 18.464843-11.914063-18.464843zm-59.320313 4.441406c-4.433594-6.871094-3.996094-15.789063 1.097656-22.1875l2.8125-3.539063c17.480469 27.089844 44.675781 69.25 91.417969 141.707032l-3.066406-.71875c-4.792969-1.121094-9.65625 1.695312-11.074219 6.421875l-.828125 2.773437c-.105469-.164062-26.648438-41.277344-26.648438-41.277344-.074218-.117187-19.164062-29.683593-19.164062-29.683593zm28.246094 71.398437c.492187.765626 9.773437 15.140626 10.234375 15.851563l-24.023438 37.207031-.832031-2.773437c-1.410156-4.726563-6.273437-7.542969-11.070313-6.421875l-3.066406.71875zm0 0"/><path d="m297.027344 319.269531h-200.832032c-4.144531 0-7.5 3.359375-7.5 7.5s3.355469 7.5 7.5 7.5h200.828126c4.144531 0 7.503906-3.359375 7.503906-7.5s-3.359375-7.5-7.5-7.5zm0 0"/><path d="m248.402344 285.769531h-103.585938c-4.144531 0-7.5 3.359375-7.5 7.5s3.355469 7.5 7.5 7.5h103.585938c4.144531 0 7.5-3.359375 7.5-7.5s-3.355469-7.5-7.5-7.5zm0 0"/><path d="m222.507812 419.769531h-51.792968c-4.144532 0-7.503906 3.355469-7.503906 7.5 0 4.140625 3.359374 7.5 7.503906 7.5h51.792968c4.144532 0 7.5-3.359375 7.5-7.5 0-4.144531-3.359374-7.5-7.5-7.5zm0 0"/><path d="m297.027344 352.769531h-200.832032c-4.144531 0-7.5 3.359375-7.5 7.5s3.355469 7.5 7.5 7.5h200.828126c4.144531 0 7.503906-3.359375 7.503906-7.5s-3.359375-7.5-7.5-7.5zm0 0"/><path d="m297.027344 386.269531h-200.832032c-4.144531 0-7.5 3.355469-7.5 7.5 0 4.140625 3.355469 7.5 7.5 7.5h200.828126c4.144531 0 7.503906-3.359375 7.503906-7.5 0-4.144531-3.359375-7.5-7.5-7.5zm0 0"/><path d="m385.71875 246c4.144531 0 7.503906-3.359375 7.503906-7.5v-202.867188c0-19.648437-15.988281-35.632812-35.636718-35.632812h-321.953126c-19.648437 0-35.632812 15.984375-35.632812 35.632812v440.734376c0 19.648437 15.984375 35.632812 35.632812 35.632812h321.953126c19.648437 0 35.636718-15.984375 35.636718-35.632812v-202.867188c0-4.140625-3.359375-7.5-7.5-7.5-4.144531 0-7.5 3.359375-7.5 7.5v202.867188c0 11.375-9.257812 20.632812-20.636718 20.632812h-321.953126c-11.375 0-20.632812-9.257812-20.632812-20.632812v-440.734376c0-11.375 9.257812-20.632812 20.632812-20.632812h321.953126c11.378906 0 20.636718 9.257812 20.636718 20.632812v202.867188c-.003906 4.140625 3.355469 7.5 7.496094 7.5zm0 0"/></svg>