<?xml version="1.0" encoding="iso-8859-1"?>
<!-- Generator: Adobe Illustrator 19.0.0, SVG Export Plug-In . SVG Version: 6.00 Build 0)  -->
<svg version="1.1" id="Layer_1" xmlns="http://www.w3.org/2000/svg" xmlns:xlink="http://www.w3.org/1999/xlink" x="0px" y="0px"
	 viewBox="0 0 511.999 511.999" style="enable-background:new 0 0 511.999 511.999;" xml:space="preserve">
<polyline style="fill:#BACBD8;" points="489.021,395.282 489.021,225.952 328.543,225.952 328.543,373.741 "/>
<rect x="313.987" y="157.851" style="fill:#FD5D65;" width="189.599" height="68.106"/>
<g>
	<rect x="359.076" y="248.966" style="fill:#CDEFF7;" width="32.212" height="44.175"/>
	<rect x="426.264" y="248.966" style="fill:#CDEFF7;" width="32.212" height="44.175"/>
	<rect x="359.076" y="317.068" style="fill:#CDEFF7;" width="32.212" height="44.175"/>
</g>
<rect x="426.264" y="317.068" style="fill:#4F5E60;" width="32.212" height="55.224"/>
<g>
	<polygon style="fill:#BACBD8;" points="415.221,373.216 415.221,385.379 469.52,392.664 469.52,373.216 	"/>
	<polyline style="fill:#BACBD8;" points="336.238,374.109 336.238,204.779 175.76,204.779 175.76,352.568 	"/>
</g>
<rect x="161.204" y="136.678" style="fill:#63DBAF;" width="189.599" height="68.106"/>
<g>
	<rect x="206.293" y="227.793" style="fill:#CDEFF7;" width="32.212" height="44.175"/>
	<rect x="273.481" y="227.793" style="fill:#CDEFF7;" width="32.212" height="44.175"/>
	<rect x="206.293" y="295.895" style="fill:#CDEFF7;" width="32.212" height="44.175"/>
</g>
<rect x="273.481" y="295.895" style="fill:#4F5E60;" width="32.212" height="55.224"/>
<g>
	<polygon style="fill:#BACBD8;" points="262.438,352.043 262.438,364.206 316.737,371.491 316.737,352.043 	"/>
	<polyline style="fill:#BACBD8;" points="183.462,353.084 183.462,183.753 22.983,183.753 22.983,331.543 	"/>
</g>
<rect x="8.421" y="115.652" style="fill:#FEC95B;" width="189.599" height="68.106"/>
<g>
	<rect x="53.521" y="206.767" style="fill:#CDEFF7;" width="32.212" height="44.175"/>
	<rect x="120.708" y="206.767" style="fill:#CDEFF7;" width="32.212" height="44.175"/>
	<rect x="53.521" y="274.869" style="fill:#CDEFF7;" width="32.212" height="44.175"/>
</g>
<rect x="120.708" y="274.869" style="fill:#4F5E60;" width="32.212" height="55.224"/>
<polygon style="fill:#BACBD8;" points="109.661,331.017 109.661,343.18 163.96,350.466 163.96,331.017 "/>
<path d="M85.736,200.462H53.523c-3.483,0-6.308,2.825-6.308,6.308v44.176c0,3.483,2.825,6.308,6.308,6.308h32.212
	c3.483,0,6.308-2.825,6.308-6.308V206.77C92.044,203.287,89.219,200.462,85.736,200.462z M79.429,213.078v3.951H59.831v-3.951
	H79.429z M59.831,244.64v-14.995h19.597v14.996L59.831,244.64L59.831,244.64z"/>
<path d="M120.709,257.255h32.213c3.483,0,6.308-2.825,6.308-6.308v-44.176c0-3.483-2.825-6.308-6.308-6.308h-32.213
	c-3.483,0-6.308,2.825-6.308,6.308v44.176C114.402,254.43,117.227,257.255,120.709,257.255z M127.017,244.64v-14.995h19.598v14.996
	L127.017,244.64L127.017,244.64z M146.615,213.078v3.951h-19.598v-3.951H146.615z"/>
<path d="M85.736,268.57H53.523c-3.483,0-6.308,2.825-6.308,6.308v44.177c0,3.483,2.825,6.308,6.308,6.308h32.212
	c3.483,0,6.308-2.825,6.308-6.308v-44.177C92.044,271.394,89.219,268.57,85.736,268.57z M79.429,281.185v3.951H59.831v-3.951H79.429
	z M59.831,312.747V297.75h19.597v14.997H59.831z"/>
<path d="M238.516,221.49h-32.212c-3.483,0-6.308,2.825-6.308,6.308v44.177c0,3.483,2.825,6.308,6.308,6.308h32.212
	c3.483,0,6.308-2.825,6.308-6.308v-44.177C244.824,224.315,241.999,221.49,238.516,221.49z M232.208,234.106v3.952h-19.597v-3.952
	H232.208z M212.612,265.668v-14.995h19.597v14.996L212.612,265.668L212.612,265.668z"/>
<path d="M305.703,221.49h-32.213c-3.483,0-6.308,2.825-6.308,6.308v44.177c0,3.483,2.825,6.308,6.308,6.308h32.213
	c3.483,0,6.308-2.825,6.308-6.308v-44.177C312.01,224.315,309.186,221.49,305.703,221.49z M299.395,234.106v3.952h-19.598v-3.952
	H299.395z M279.797,265.668v-14.995h19.598v14.996L279.797,265.668L279.797,265.668z"/>
<path d="M238.516,289.599h-32.212c-3.483,0-6.308,2.825-6.308,6.308v44.176c0,3.483,2.825,6.308,6.308,6.308h32.212
	c3.483,0,6.308-2.825,6.308-6.308v-44.176C244.824,292.422,241.999,289.599,238.516,289.599z M232.208,302.214v3.951h-19.597v-3.951
	H232.208z M212.612,333.775v-14.996h19.597v14.996H212.612z"/>
<path d="M359.084,299.452h32.212c3.483,0,6.308-2.825,6.308-6.308v-44.177c0-3.483-2.825-6.308-6.308-6.308h-32.212
	c-3.483,0-6.308,2.825-6.308,6.308v44.177C352.776,296.628,355.6,299.452,359.084,299.452z M365.391,286.837v-14.996h19.597v14.996
	H365.391z M384.988,255.274v3.952h-19.597v-3.952H384.988z"/>
<path d="M426.269,299.452h32.213c3.483,0,6.308-2.825,6.308-6.308v-44.177c0-3.483-2.825-6.308-6.308-6.308h-32.213
	c-3.483,0-6.308,2.825-6.308,6.308v44.177C419.961,296.628,422.786,299.452,426.269,299.452z M432.577,286.837v-14.996h19.598
	v14.996H432.577z M452.175,255.274v3.952h-19.598v-3.952H452.175z"/>
<path d="M359.084,367.559h32.212c3.483,0,6.308-2.825,6.308-6.308v-44.176c0-3.483-2.825-6.308-6.308-6.308h-32.212
	c-3.483,0-6.308,2.825-6.308,6.308v44.176C352.776,364.734,355.6,367.559,359.084,367.559z M365.391,354.943v-14.995h19.597v14.995
	H365.391z M384.988,323.382v3.951h-19.597v-3.951H384.988z"/>
<path d="M506.531,390.095l-11.204-1.504V232.262h8.253c3.483,0,6.308-2.825,6.308-6.308v-68.101c0-3.483-2.825-6.308-6.308-6.308
	H357.105v-14.866c0-3.483-2.825-6.308-6.308-6.308h-146.47v-14.718c0-3.483-2.824-6.308-6.308-6.308H8.425
	c-3.484,0-6.308,2.825-6.308,6.308v68.107c0,3.483,2.824,6.308,6.308,6.308h8.253v134.264l-9.53-1.279
	c-3.451-0.47-6.627,1.96-7.091,5.412c-0.464,3.452,1.96,6.627,5.412,7.09l499.383,67.041c0.285,0.039,0.568,0.058,0.847,0.058
	c3.11,0,5.818-2.301,6.244-5.47C512.407,393.732,509.984,390.559,506.531,390.095z M482.711,386.898l-6.875-0.923v-12.756
	c0-3.483-2.825-6.308-6.308-6.308h-4.739v-49.836c0-3.483-2.825-6.308-6.308-6.308h-32.213c-3.483,0-6.308,2.825-6.308,6.308v49.836
	h-4.732c-3.483,0-6.308,2.825-6.308,6.308v3.773l-66.367-8.91v-135.82H482.71v154.636H482.711z M452.175,366.911h-19.598v-43.528
	h19.598V366.911z M463.222,379.526v4.755l-35.42-4.755H463.222z M299.395,345.738h-19.598v-43.524h19.598V345.738z M310.439,358.354
	v5.416l-40.346-5.416H310.439z M316.746,345.738h-4.736v-49.832c0-3.483-2.825-6.308-6.308-6.308h-32.213
	c-3.483,0-6.308,2.825-6.308,6.308v49.832h-4.735c-3.483,0-6.308,2.825-6.308,6.308v4.434l-66.367-8.91V211.1h140.168v155.288
	l-6.886-0.924v-13.418C323.054,348.562,320.229,345.738,316.746,345.738z M357.104,204.793v-40.631h140.168v55.486H342.554V211.1
	h8.242C354.28,211.1,357.104,208.276,357.104,204.793z M204.327,183.762v-40.774h140.161v55.497H189.771v-8.416h8.248
	C201.504,190.07,204.327,187.245,204.327,183.762z M14.733,121.962h176.979v55.492H23.087c-0.034,0-0.067-0.005-0.102-0.005
	c-0.035,0-0.067,0.004-0.102,0.005h-8.151V121.962z M29.294,190.07h147.863v155.807l-6.886-0.924V331.02
	c0-3.483-2.825-6.308-6.308-6.308h-4.733v-49.835c0-3.483-2.825-6.308-6.308-6.308h-32.213c-3.483,0-6.308,2.825-6.308,6.308v49.835
	h-4.737c-3.483,0-6.308,2.825-6.308,6.308v4.949l-74.063-9.943C29.294,326.027,29.294,190.07,29.294,190.07z M146.615,324.713
	h-19.598v-43.527h19.598V324.713z M115.972,337.328h41.683v5.931l-41.683-5.596C115.972,337.663,115.972,337.328,115.972,337.328z"
	/>
<g>
</g>
<g>
</g>
<g>
</g>
<g>
</g>
<g>
</g>
<g>
</g>
<g>
</g>
<g>
</g>
<g>
</g>
<g>
</g>
<g>
</g>
<g>
</g>
<g>
</g>
<g>
</g>
<g>
</g>
</svg>
